<?xml version="1.0" encoding="UTF-8"?>
<svg
   xmlns:dc="http://purl.org/dc/elements/1.1/"
   xmlns:cc="http://creativecommons.org/ns#"
   xmlns:rdf="http://www.w3.org/1999/02/22-rdf-syntax-ns#"
   xmlns:svg="http://www.w3.org/2000/svg"
   xmlns="http://www.w3.org/2000/svg"
   version="1.1"
   id="svg833"
   xml:space="preserve"
   width="146.73827"
   height="150.88452"
   fill="#d40000"
   viewBox="0 0 146.73826 150.88452">
   <g id="monogram" transform="matrix(1.3333333,0,0,-1.3333333,-151.09279,969.44204)">
     <g id="g843" transform="matrix(0.09641585,-0.0265327,0.0265327,0.09641585,-172.33088,67.893483)">
       <path transform="matrix(7.2311887,1.9899525,1.9899525,-7.2311887,1005.1194,7113.5254)"
         d="M 76.650391,0.00976562 C 43.061239,-0.55191423 12.04817,21.544122 2.7226562,55.431641 -8.3294511,95.593341 15.268655,137.1116 55.431641,148.16406 c 24.920282,6.85782 50.356059,0.36627 68.718749,-15.13867 l -18.85156,-5.1875 c -4.55157,2.59468 -9.445421,4.5813 -14.544924,5.92578 L 118.4375,33.166016 c 3.68196,3.751378 6.86167,7.947735 9.44141,12.488281 l 18.85937,5.189453 C 138.88527,28.148019 120.35993,9.5762294 95.455078,2.7226562 89.179612,0.99570924 82.870604,0.11378042 76.650391,0.00976562 Z M 74.847656,15.142578 c 5.477682,-0.05496 11.050185,0.630178 16.595703,2.15625 6.363446,1.751158 12.195331,4.470646 17.406251,7.9375 l -29.802735,37.398438 -6.476563,-47.404297 -0.06445,-0.01953 c 0.778229,-0.0377 1.559271,-0.06051 2.341797,-0.06836 z M 60.130859,17.119141 32.447266,117.7207 C 17.888138,102.88608 11.384682,80.925428 17.296875,59.441406 23.209422,37.956099 40.03135,22.41743 60.130859,17.119141 Z m 5.347657,23.308593 c 1.989306,15.779445 4.164179,31.398789 6.691406,46.957032 C 82.410555,75.477789 92.012528,63.111268 101.82422,50.798828 L 78.46875,135.67188 c -6.253924,0.31322 -12.661327,-0.33212 -19.027344,-2.08399 -6.367302,-1.75222 -12.202213,-4.47487 -17.414062,-7.94336 z"
         id="path845" />
     </g>
   </g>
</svg>
