<?xml version="1.0" encoding="UTF-8" standalone="no"?><svg xmlns:svg="http://www.w3.org/2000/svg" xmlns="http://www.w3.org/2000/svg" width="75mm" height="75mm" viewBox="0 0 75 75" version="1.1" id="svg8"><defs id="defs2"><rect x="36.285713" y="38.55357" width="69.458212" height="45.065315" id="rect835"/></defs><metadata id="metadata5"/><g id="layer1" transform="translate(-27.781131,-19.843602)"><g aria-label="1F30x
1FADx" transform="matrix(0.98565919,0,0,1,-5.5769183,-2.7456044)" id="text833"><path d="M 49.194758,55.747086 H 46.00115 V 47.00342 l 0.03101,-1.436607 0.05168,-1.570966 q -0.795818,0.795818 -1.105877,1.043865 l -1.736331,1.395266 -1.53996,-1.922366 4.867928,-3.875739 h 2.625166 z" id="path881"/><path d="M 57.841271,55.747086 H 54.689004 V 40.636873 h 8.660984 v 2.625167 h -5.508717 v 3.89641 h 5.126311 v 2.614831 h -5.126311 z" id="path883"/><path d="m 75.489834,44.016517 q 0,1.415937 -0.85783,2.408126 -0.85783,0.992189 -2.408125,1.36426 v 0.06201 q 1.829348,0.227377 2.769861,1.116213 0.940512,0.8785 0.940512,2.377119 0,2.180749 -1.581301,3.400315 -1.581301,1.20923 -4.516527,1.20923 -2.459802,0 -4.361498,-0.816489 v -2.718184 q 0.878501,0.444418 1.932701,0.723471 1.054201,0.279053 2.087732,0.279053 1.581301,0 2.335778,-0.537436 0.754477,-0.537435 0.754477,-1.725995 0,-1.064536 -0.868165,-1.508954 -0.868166,-0.444418 -2.769861,-0.444418 h -1.147219 v -2.449467 h 1.167889 q 1.757002,0 2.563155,-0.454754 0.816489,-0.465088 0.816489,-1.581301 0,-1.71566 -2.149743,-1.71566 -0.744142,0 -1.519289,0.248047 -0.764813,0.248047 -1.705325,0.85783 l -1.477949,-2.201419 q 2.067061,-1.488284 4.92994,-1.488284 2.346114,0 3.700038,0.950848 1.36426,0.950848 1.36426,2.645837 z" id="path885"/><path d="m 88.332482,48.19198 q 0,3.958421 -1.302248,5.860117 -1.291913,1.901695 -3.989427,1.901695 -2.614832,0 -3.948086,-1.963707 -1.322919,-1.963708 -1.322919,-5.798105 0,-3.999762 1.291913,-5.891123 1.291913,-1.901696 3.979092,-1.901696 2.614832,0 3.948086,1.984379 1.343589,1.984378 1.343589,5.80844 z m -7.389742,0 q 0,2.780196 0.475424,3.989427 0.48576,1.198895 1.622643,1.198895 1.116213,0 1.612307,-1.219566 0.496095,-1.219566 0.496095,-3.968756 0,-2.780197 -0.50643,-3.989427 -0.496095,-1.219566 -1.601972,-1.219566 -1.126548,0 -1.612307,1.219566 -0.48576,1.20923 -0.48576,3.989427 z" id="path887"/><path d="m 93.361639,49.845628 -3.720709,-5.65341 h 3.576015 l 2.24276,3.679367 2.263432,-3.679367 h 3.576013 l -3.762049,5.65341 3.937749,5.901458 h -3.586348 l -2.428797,-3.958421 -2.439131,3.958421 h -3.576015 z" id="path889"/><path d="M 46.135509,78.528409 H 42.9419 v -8.743667 l 0.03101,-1.436607 0.05168,-1.570966 q -0.795819,0.795819 -1.105878,1.043866 l -1.736331,1.395266 -1.53996,-1.922367 4.867928,-3.875738 h 2.625167 z" id="path891"/><path d="M 54.782022,78.528409 H 51.629754 V 63.418196 h 8.660984 v 2.625167 h -5.508716 v 3.896409 h 5.12631 v 2.614832 h -5.12631 z" id="path893"/><path d="m 72.761314,78.528409 -1.095542,-3.596686 h -5.508716 l -1.095542,3.596686 h -3.451991 l 5.333016,-15.172225 h 3.91708 l 5.353687,15.172225 z M 70.90096,72.244545 q -1.51929,-4.888599 -1.71566,-5.529387 -0.186036,-0.640789 -0.268718,-1.01286 -0.341065,1.322919 -1.953373,6.542247 z" id="path895"/><path d="m 90.905971,70.828608 q 0,3.731044 -2.129072,5.715423 -2.118738,1.984378 -6.128835,1.984378 H 78.369249 V 63.418196 h 4.743904 q 3.700038,0 5.746428,1.953372 2.04639,1.953372 2.04639,5.45704 z m -3.327968,0.08268 q 0,-4.867928 -4.299486,-4.867928 h -1.705325 v 9.839208 h 1.374596 q 4.630215,0 4.630215,-4.97128 z" id="path897"/><path d="M 96.420889,72.626951 92.70018,66.97354 h 3.576015 l 2.24276,3.679368 2.263435,-3.679368 h 3.57601 l -3.76205,5.653411 3.93775,5.901458 h -3.58635 l -2.428795,-3.958421 -2.439131,3.958421 h -3.576015 z" id="path899"/></g><g id="g874" transform="translate(12.473215,-83.532738)"><path id="circle3823" d="m 52.727559,103.37634 c 20.6663,0 37.419643,16.75334 37.419643,37.41964 0,20.6663 -16.753343,37.41965 -37.419643,37.41965 -20.666299,0 -37.419643,-16.75335 -37.419643,-37.41965 0,-20.6663 16.753344,-37.41964 37.419643,-37.41964 z m 0,9.35491 c -5.718922,0 -11.038451,1.71275 -15.474582,4.65017 l 38.889144,38.88914 c 2.93742,-4.43613 4.650169,-9.75566 4.650169,-15.47458 0,-15.49972 -12.565006,-28.06473 -28.064731,-28.06473 z M 29.312998,125.3175 c -2.938517,4.43667 -4.65017,9.7584 -4.65017,15.47848 0,15.49972 12.565007,28.06473 28.064731,28.06473 5.720082,0 11.041807,-1.71165 15.478477,-4.65017 z"/><path id="circle3823-2" d="m 199.28516,390.71484 c -78.10885,0 -141.427738,63.31889 -141.427738,141.42774 0,78.10885 63.318888,141.42969 141.427738,141.42969 78.10885,0 141.42968,-63.32084 141.42968,-141.42969 0,-78.10885 -63.32083,-141.42774 -141.42968,-141.42774 z m 0,35.35743 c 58.58163,0 106.07226,47.48869 106.07226,106.07031 0,21.61481 -6.47411,41.71985 -17.57617,58.48633 -12.90052,14.66106 -17.31461,17.68929 -29.99414,30.00976 -16.76852,11.10622 -36.88275,17.57617 -58.50195,17.57617 -58.58164,0 -106.070316,-47.49064 -106.070316,-106.07226 0,-21.6192 6.468013,-41.73344 17.574216,-58.50196 11.14001,-12.33648 17.55948,-18.1587 30.00977,-29.99414 16.76648,-11.10206 36.8715,-17.57421 58.48633,-17.57421 z" transform="scale(0.26458333)"/></g></g></svg>